<svg width="261" height="257" xmlns="http://www.w3.org/2000/svg" xmlns:xlink="http://www.w3.org/1999/xlink" overflow="hidden"><defs><clipPath id="clip0"><rect x="144" y="97" width="261" height="257"/></clipPath></defs><g clip-path="url(#clip0)" transform="translate(-144 -97)"><path d="M183.5 233.5 290.5 233.5 203.959 303.5 183.5 302.377 183.5 233.5Z" stroke="#000000" stroke-width="0.666667" stroke-miterlimit="8" fill-rule="evenodd"/><path d="M291 234 381.13 350.873" stroke="#000000" stroke-width="4" stroke-miterlimit="8" stroke-dasharray="16 12" fill="none" fill-rule="evenodd"/><path d="M0 0 1.07381 135.803" stroke="#000000" stroke-width="4" stroke-miterlimit="8" stroke-dasharray="16 12" fill="none" fill-rule="evenodd" transform="matrix(-1 -8.74228e-08 -8.74228e-08 1 291.074 98)"/><path d="M368.271 153.003 383.508 170.585 371.66 180.853 356.423 163.271Z" fill-rule="evenodd"/><path d="M259.609 196.831 363.27 171.336 323.296 270.319Z" fill="#2E75B6" fill-rule="evenodd" fill-opacity="0.101961"/><path d="M0 0 48.6224 95.7237" stroke="#0070C0" stroke-width="4" stroke-miterlimit="8" fill="none" fill-rule="evenodd" transform="matrix(-0.654914 -0.755703 -0.755703 0.654914 363.792 170.884)"/><path d="M363.792 170.884 323.296 270.319" stroke="#0070C0" stroke-width="4" stroke-miterlimit="8" fill="none" fill-rule="evenodd"/><path d="M0 0 83.3604 45.6331" stroke="#0070C0" stroke-width="3" stroke-miterlimit="8" stroke-dasharray="12 9" fill="none" fill-rule="evenodd" transform="matrix(0.977357 -0.211598 -0.211598 -0.977357 291.453 233.575)"/><path d="M403.954 228.892 402.3 253.719 386.324 252.655 387.978 227.827Z" fill-rule="evenodd"/><path d="M294.696 185.331 386.288 240.162 288.233 282.361Z" fill="#2E75B6" fill-rule="evenodd" fill-opacity="0.101961"/><path d="M0 0 48.6224 95.7237" stroke="#0070C0" stroke-width="4" stroke-miterlimit="8" fill="none" fill-rule="evenodd" transform="matrix(0.0664582 -0.997789 -0.997789 -0.0664582 386.977 240.208)"/><path d="M386.977 240.208 288.233 282.361" stroke="#0070C0" stroke-width="4" stroke-miterlimit="8" fill="none" fill-rule="evenodd"/><path d="M0 0 83.3604 45.6331" stroke="#0070C0" stroke-width="3" stroke-miterlimit="8" stroke-dasharray="12 9" fill="none" fill-rule="evenodd" transform="matrix(0.843319 0.537413 0.537413 -0.843319 291.465 233.846)"/><path d="M1.57168e-06-2 123.598-1.9999 123.598 2.0001-1.57168e-06 2ZM121.598-5.9999 133.598 0.000104987 121.598 6.0001Z" transform="matrix(-1 -8.74228e-08 -8.74228e-08 1 290.598 233)"/><path d="M1.23145-1.57592 126.951 96.6628 124.488 99.8147-1.23145 1.57592ZM127.838 92.2794 133.599 104.396 120.449 101.735Z" transform="matrix(-1 -8.74228e-08 -8.74228e-08 1 290.599 233)"/></g></svg>